<?xml version="1.0" encoding="utf-8"?>
<!-- Generator: Adobe Illustrator 15.0.2, SVG Export Plug-In . SVG Version: 6.00 Build 0)  -->
<!DOCTYPE svg PUBLIC "-//W3C//DTD SVG 1.1//EN" "http://www.w3.org/Graphics/SVG/1.1/DTD/svg11.dtd">
<svg version="1.1" id="Layer_1" xmlns="http://www.w3.org/2000/svg" xmlns:xlink="http://www.w3.org/1999/xlink" x="0px" y="0px"
	 width="30px" height="30px" viewBox="0 0 30 30" enable-background="new 0 0 30 30" xml:space="preserve">
<path opacity="0.7" fill="#FFFFFF" d="M14.999,0c-8.283,0-15,6.716-15,15s6.717,15,15,15c8.287,0,15-6.716,15-15S23.286,0,14.999,0z
	 M23.424,18.987c0,0.483-0.339,1.073-0.756,1.312l-6.912,3.989c-0.414,0.241-1.099,0.241-1.514,0L7.335,20.3
	c-0.417-0.239-0.761-0.829-0.761-1.312v-7.976c0-0.484,0.343-1.074,0.761-1.313l6.907-3.991c0.415-0.238,1.1-0.238,1.514,0
	l6.912,3.991c0.417,0.239,0.756,0.829,0.756,1.313V18.987z"/>
</svg>
